<svg width="4190" height="1450" xmlns="http://www.w3.org/2000/svg" xmlns:xlink="http://www.w3.org/1999/xlink" xml:space="preserve" overflow="hidden"><g transform="translate(-136 -407)"><path d="M738.862 1042.1C700.351 1052.93 660.414 1058.61 620.221 1058.98" stroke="#7F7F7F" stroke-width="10.3125" stroke-miterlimit="8" stroke-dasharray="41.25 30.9375" fill="none" fill-rule="evenodd"/><path d="M3608 581.499C3608 534.279 3646.28 496 3693.5 496L3977.5 496C4024.72 496 4063 534.279 4063 581.499L4063 969.501C4063 1016.72 4024.72 1055 3977.5 1055L3693.5 1055C3646.28 1055 3608 1016.72 3608 969.501Z" stroke="#7F7F7F" stroke-width="10.3125" stroke-miterlimit="8" fill="none" fill-rule="evenodd"/><text fill="#7F7F7F" font-family="Calibri,Calibri_MSFontService,sans-serif" font-weight="400" font-size="83" transform="matrix(1 0 0 1 3735.55 803)">Scope</text><rect x="1920" y="783" width="493" height="276" stroke="#7F7F7F" stroke-width="10.3125" stroke-miterlimit="8" fill="none"/><text fill="#7F7F7F" font-family="Calibri,Calibri_MSFontService,sans-serif" font-weight="400" font-size="83" transform="matrix(1 0 0 1 1968.47 899)">Integrator 1</text><text fill="#0070C0" font-family="Calibri,Calibri_MSFontService,sans-serif" font-weight="400" font-size="83" transform="matrix(1 0 0 1 2123.57 998)">ω</text><text fill="#0070C0" font-family="Calibri,Calibri_MSFontService,sans-serif" font-weight="400" font-size="55" transform="matrix(1 0 0 1 2180.86 1018)">0</text><rect x="2781" y="783" width="493" height="276" stroke="#7F7F7F" stroke-width="10.3125" stroke-miterlimit="8" fill="none"/><text fill="#7F7F7F" font-family="Calibri,Calibri_MSFontService,sans-serif" font-weight="400" font-size="83" transform="matrix(1 0 0 1 2829.99 899)">Integrator 2</text><text fill="#0070C0" font-family="Calibri,Calibri_MSFontService,sans-serif" font-weight="400" font-size="83" transform="matrix(1 0 0 1 2986.81 998)">φ</text><text fill="#0070C0" font-family="Calibri,Calibri_MSFontService,sans-serif" font-weight="400" font-size="55" transform="matrix(1 0 0 1 3040.67 1018)">0</text><path d="M3442.21 936 3442.21 1407.16 3214.41 1407.16 3214.41 1396.85 3437.05 1396.85 3431.9 1402 3431.9 936ZM3219.56 1427.78 3168 1402 3219.56 1376.22Z" fill="#7F7F7F"/><path d="M0 5.15625-95.0544 5.15625-89.8982 0-89.8982 481.973-95.0544 476.817 85.033 476.817 85.033 487.129-100.211 487.129-100.211-5.15625 0-5.15625ZM79.8767 456.192 131.439 481.973 79.8767 507.754Z" fill="#7F7F7F" transform="matrix(1 -1.22465e-16 -1.22465e-16 -1 1788 1402.97)"/><path d="M2413 915.844 2735.33 915.844 2735.33 926.156 2413 926.156ZM2730.18 895.219 2781.74 921 2730.18 946.781Z" fill="#7F7F7F"/><path d="M0.00494352-5.15625 287.486-4.88063 287.476 5.43187-0.00494352 5.15625ZM282.349-25.5106 333.887 0.320112 282.3 26.0519Z" fill="#7F7F7F" transform="matrix(1 0 0 -1 3274 921.32)"/><text fill="#0070C0" font-family="Calibri,Calibri_MSFontService,sans-serif" font-weight="400" font-size="83" transform="matrix(1 0 0 1 3641.09 948)">φ</text><text fill="#0070C0" font-family="Calibri,Calibri_MSFontService,sans-serif" font-weight="400" font-size="83" transform="matrix(1 0 0 1 3694.94 948)">(</text><text fill="#0070C0" font-family="Calibri,Calibri_MSFontService,sans-serif" font-weight="400" font-size="83" transform="matrix(1 0 0 1 3720.15 948)">t)</text><text fill="#0070C0" font-family="Calibri,Calibri_MSFontService,sans-serif" font-weight="400" font-size="83" transform="matrix(1 0 0 1 3641.09 646)">ω</text><text fill="#0070C0" font-family="Calibri,Calibri_MSFontService,sans-serif" font-weight="400" font-size="83" transform="matrix(1 0 0 1 3698.38 646)">(</text><text fill="#0070C0" font-family="Calibri,Calibri_MSFontService,sans-serif" font-weight="400" font-size="83" transform="matrix(1 0 0 1 3723.59 646)">t)</text><path d="M2595.84 901.778 2595.84 612.844 3561.43 612.844 3561.43 623.156 2601 623.156 2606.16 618 2606.16 901.778ZM3556.27 592.219 3607.83 618 3556.27 643.781Z" fill="#7F7F7F"/><path d="M3419.5 919.5C3419.5 910.111 3427.34 902.5 3437 902.5 3446.67 902.5 3454.5 910.111 3454.5 919.5 3454.5 928.889 3446.67 936.5 3437 936.5 3427.34 936.5 3419.5 928.889 3419.5 919.5Z" stroke="#7F7F7F" stroke-width="4.58333" stroke-miterlimit="8" fill="#7F7F7F" fill-rule="evenodd"/><path d="M2584.5 920C2584.5 910.335 2592.34 902.5 2602 902.5 2611.67 902.5 2619.5 910.335 2619.5 920 2619.5 929.665 2611.67 937.5 2602 937.5 2592.34 937.5 2584.5 929.665 2584.5 920Z" stroke="#7F7F7F" stroke-width="4.58333" stroke-miterlimit="8" fill="#7F7F7F" fill-rule="evenodd"/><path d="M0 0 2.45262 735.981" stroke="#7F7F7F" stroke-width="10.3125" stroke-miterlimit="8" fill="none" fill-rule="evenodd" transform="matrix(-6.12323e-17 -1 -1 6.12323e-17 976.981 658.453)"/><path d="M0 0 109.471 114.287" stroke="#7F7F7F" stroke-width="10.3125" stroke-miterlimit="8" fill="none" fill-rule="evenodd" transform="matrix(1 -1.22465e-16 -1.22465e-16 -1 846 658.288)"/><path d="M0 0 109.471 114.287" stroke="#7F7F7F" stroke-width="10.3125" stroke-miterlimit="8" fill="none" fill-rule="evenodd" transform="matrix(1 -1.22465e-16 -1.22465e-16 -1 706 658.288)"/><path d="M0 0 109.471 114.287" stroke="#7F7F7F" stroke-width="10.3125" stroke-miterlimit="8" fill="none" fill-rule="evenodd" transform="matrix(1 -1.22465e-16 -1.22465e-16 -1 565 658.288)"/><path d="M0 0 109.471 114.287" stroke="#7F7F7F" stroke-width="10.3125" stroke-miterlimit="8" fill="none" fill-rule="evenodd" transform="matrix(1 -1.22465e-16 -1.22465e-16 -1 423 656.287)"/><path d="M0 0 109.471 114.287" stroke="#7F7F7F" stroke-width="10.3125" stroke-miterlimit="8" fill="none" fill-rule="evenodd" transform="matrix(1 -1.22465e-16 -1.22465e-16 -1 282 656.287)"/><path d="M614 659 851.403 1306.01" stroke="#7F7F7F" stroke-width="10.3125" stroke-miterlimit="8" fill="none" fill-rule="evenodd"/><text fill="#0070C0" font-family="Calibri,Calibri_MSFontService,sans-serif" font-weight="400" font-size="83" transform="matrix(1 0 0 1 834.194 1148)">l</text><path d="M614 665 614 1452.41" stroke="#7F7F7F" stroke-width="10.3125" stroke-miterlimit="8" stroke-dasharray="41.25 30.9375" fill="none" fill-rule="evenodd"/><path d="M806.373 1416.78C787.689 1374.73 807.765 1325 851.214 1305.69 894.662 1286.38 945.03 1304.81 963.714 1346.86 982.397 1388.9 962.321 1438.64 918.873 1457.95 875.424 1477.25 825.056 1458.82 806.373 1416.78Z" stroke="#7F7F7F" stroke-width="10.3125" stroke-miterlimit="8" fill="none" fill-rule="evenodd"/><text fill="#0070C0" font-family="Calibri,Calibri_MSFontService,sans-serif" font-weight="400" font-size="83" transform="matrix(1 0 0 1 636.792 1002)">φ</text><text fill="#0070C0" font-family="Calibri,Calibri_MSFontService,sans-serif" font-weight="400" font-size="55" transform="matrix(1 0 0 1 690.646 1022)">0</text><path d="M890.156 1487 890.157 1575.21 879.844 1575.21 879.844 1487ZM910.782 1570.05 885.001 1621.62 859.219 1570.05Z" fill="#0070C0"/><text fill="#0070C0" font-family="Calibri,Calibri_MSFontService,sans-serif" font-weight="400" font-size="83" transform="matrix(1 0 0 1 934.975 1549)">g</text><rect x="2675" y="1264" width="493" height="276" stroke="#7F7F7F" stroke-width="10.3125" stroke-miterlimit="8" fill="none"/><text fill="#7F7F7F" font-family="Calibri,Calibri_MSFontService,sans-serif" font-weight="400" font-size="83" transform="matrix(1 0 0 1 2774.73 1380)">Function</text><text fill="#0070C0" font-family="Calibri,Calibri_MSFontService,sans-serif" font-weight="400" font-size="83" transform="matrix(1 0 0 1 2874.14 1479)">sin</text><path d="M2251 1592 1788 1403 2251 1214Z" stroke="#7F7F7F" stroke-width="10.3125" stroke-miterlimit="8" fill="none" fill-rule="evenodd"/><text fill="#7F7F7F" font-family="Calibri,Calibri_MSFontService,sans-serif" font-weight="400" font-size="83" transform="matrix(1 -2.44929e-16 2.44929e-16 1 2056.6 1381)">Amp</text><text fill="#0070C0" font-family="Calibri,Calibri_MSFontService,sans-serif" font-weight="400" font-size="83" transform="matrix(1 -2.44929e-16 2.44929e-16 1 2077.48 1480)">–</text><text fill="#0070C0" font-family="Calibri,Calibri_MSFontService,sans-serif" font-weight="400" font-size="83" transform="matrix(1 -2.44929e-16 2.44929e-16 1 2118.73 1480)">g/l</text><path d="M0.0080647-5.15624 377.933-4.56515 377.917 5.74734-0.0080647 5.15624ZM372.809-25.1982 424.331 0.663681 372.728 26.3643Z" fill="#7F7F7F" transform="matrix(-1 0 0 1 2675.33 1402)"/></g></svg>