<?xml version="1.0" encoding="utf-8" standalone="no"?>
<!DOCTYPE svg PUBLIC "-//W3C//DTD SVG 1.1//EN"
  "http://www.w3.org/Graphics/SVG/1.1/DTD/svg11.dtd">
<svg xmlns:xlink="http://www.w3.org/1999/xlink" width="231pt" height="227.4pt" viewBox="0 0 231 227.4" xmlns="http://www.w3.org/2000/svg" version="1.1">
 <metadata>
  <rdf:RDF xmlns:dc="http://purl.org/dc/elements/1.1/" xmlns:cc="http://creativecommons.org/ns#" xmlns:rdf="http://www.w3.org/1999/02/22-rdf-syntax-ns#">
   <cc:Work>
    <dc:type rdf:resource="http://purl.org/dc/dcmitype/StillImage"/>
    <dc:date>2025-04-23T13:59:18.992063</dc:date>
    <dc:format>image/svg+xml</dc:format>
    <dc:creator>
     <cc:Agent>
      <dc:title>Matplotlib v3.8.3, https://matplotlib.org/</dc:title>
     </cc:Agent>
    </dc:creator>
   </cc:Work>
  </rdf:RDF>
 </metadata>
 <defs>
  <style type="text/css">*{stroke-linejoin: round; stroke-linecap: butt}</style>
 </defs>
 <g id="figure_1">
  <g id="patch_1">
   <path d="M 0 227.4 
L 231 227.4 
L 231 0 
L 0 0 
L 0 227.4 
z
" style="fill: none"/>
  </g>
  <g id="axes_1">
   <g id="patch_2">
    <path d="M 46.220313 186.24375 
L 220.2 186.24375 
L 220.2 11.552795 
L 46.220313 11.552795 
L 46.220313 186.24375 
z
" style="fill: none"/>
   </g>
   <g id="matplotlib.axis_1">
    <g id="xtick_1">
     <g id="line2d_1">
      <path d="M 69.206552 186.24375 
L 69.206552 11.552795 
" clip-path="url(#p9af9af035e)" style="fill: none; stroke: #797979; stroke-width: 0.75; stroke-linecap: square"/>
     </g>
     <g id="line2d_2">
      <defs>
       <path id="m0b27174c80" d="M 0 0 
L 0 3.5 
" style="stroke: #797979"/>
      </defs>
      <g>
       <use xlink:href="#m0b27174c80" x="69.206552" y="186.24375" style="fill: #797979; stroke: #797979"/>
      </g>
     </g>
     <g id="text_1">
      <!-- −5 -->
      <g style="fill: #797979" transform="translate(61.835458 200.842187) scale(0.1 -0.1)">
       <defs>
        <path id="DejaVuSans-2212" d="M 678 2272 
L 4684 2272 
L 4684 1741 
L 678 1741 
L 678 2272 
z
" transform="scale(0.015625)"/>
        <path id="DejaVuSans-35" d="M 691 4666 
L 3169 4666 
L 3169 4134 
L 1269 4134 
L 1269 2991 
Q 1406 3038 1543 3061 
Q 1681 3084 1819 3084 
Q 2600 3084 3056 2656 
Q 3513 2228 3513 1497 
Q 3513 744 3044 326 
Q 2575 -91 1722 -91 
Q 1428 -91 1123 -41 
Q 819 9 494 109 
L 494 744 
Q 775 591 1075 516 
Q 1375 441 1709 441 
Q 2250 441 2565 725 
Q 2881 1009 2881 1497 
Q 2881 1984 2565 2268 
Q 2250 2553 1709 2553 
Q 1456 2553 1204 2497 
Q 953 2441 691 2322 
L 691 4666 
z
" transform="scale(0.015625)"/>
       </defs>
       <use xlink:href="#DejaVuSans-2212"/>
       <use xlink:href="#DejaVuSans-35" x="83.789062"/>
      </g>
     </g>
    </g>
    <g id="xtick_2">
     <g id="line2d_3">
      <path d="M 133.214489 186.24375 
L 133.214489 11.552795 
" clip-path="url(#p9af9af035e)" style="fill: none; stroke: #797979; stroke-width: 0.75; stroke-linecap: square"/>
     </g>
     <g id="line2d_4">
      <g>
       <use xlink:href="#m0b27174c80" x="133.214489" y="186.24375" style="fill: #797979; stroke: #797979"/>
      </g>
     </g>
     <g id="text_2">
      <!-- 0 -->
      <g style="fill: #797979" transform="translate(130.033239 200.842187) scale(0.1 -0.1)">
       <defs>
        <path id="DejaVuSans-30" d="M 2034 4250 
Q 1547 4250 1301 3770 
Q 1056 3291 1056 2328 
Q 1056 1369 1301 889 
Q 1547 409 2034 409 
Q 2525 409 2770 889 
Q 3016 1369 3016 2328 
Q 3016 3291 2770 3770 
Q 2525 4250 2034 4250 
z
M 2034 4750 
Q 2819 4750 3233 4129 
Q 3647 3509 3647 2328 
Q 3647 1150 3233 529 
Q 2819 -91 2034 -91 
Q 1250 -91 836 529 
Q 422 1150 422 2328 
Q 422 3509 836 4129 
Q 1250 4750 2034 4750 
z
" transform="scale(0.015625)"/>
       </defs>
       <use xlink:href="#DejaVuSans-30"/>
      </g>
     </g>
    </g>
    <g id="xtick_3">
     <g id="line2d_5">
      <path d="M 197.222426 186.24375 
L 197.222426 11.552795 
" clip-path="url(#p9af9af035e)" style="fill: none; stroke: #797979; stroke-width: 0.75; stroke-linecap: square"/>
     </g>
     <g id="line2d_6">
      <g>
       <use xlink:href="#m0b27174c80" x="197.222426" y="186.24375" style="fill: #797979; stroke: #797979"/>
      </g>
     </g>
     <g id="text_3">
      <!-- 5 -->
      <g style="fill: #797979" transform="translate(194.041176 200.842187) scale(0.1 -0.1)">
       <use xlink:href="#DejaVuSans-35"/>
      </g>
     </g>
    </g>
    <g id="text_4">
     <!-- $\omega$ -->
     <g style="fill: #797979" transform="translate(129.010156 214.520312) scale(0.1 -0.1)">
      <defs>
       <path id="DejaVuSans-Oblique-3c9" d="M 1369 -91 
Q 72 -91 434 1766 
Q 575 2500 1256 3500 
L 1875 3500 
Q 1231 2500 1088 1750 
Q 819 397 1519 397 
Q 2166 397 2478 2078 
L 3009 2078 
Q 2669 388 3316 397 
Q 4013 403 4275 1750 
Q 4419 2500 4169 3500 
L 4788 3500 
Q 5075 2500 4934 1766 
Q 4578 -94 3278 -91 
Q 2428 -88 2503 844 
Q 2194 -91 1369 -91 
z
" transform="scale(0.015625)"/>
      </defs>
      <use xlink:href="#DejaVuSans-Oblique-3c9" transform="translate(0 0.3125)"/>
     </g>
    </g>
   </g>
   <g id="matplotlib.axis_2">
    <g id="ytick_1">
     <g id="line2d_7">
      <path d="M 46.220313 183.184212 
L 220.2 183.184212 
" clip-path="url(#p9af9af035e)" style="fill: none; stroke: #797979; stroke-width: 0.75; stroke-linecap: square"/>
     </g>
     <g id="line2d_8">
      <defs>
       <path id="m8c047d51a3" d="M 0 0 
L -3.5 0 
" style="stroke: #797979"/>
      </defs>
      <g>
       <use xlink:href="#m8c047d51a3" x="46.220313" y="183.184212" style="fill: #797979; stroke: #797979"/>
      </g>
     </g>
     <g id="text_5">
      <!-- −3 -->
      <g style="fill: #797979" transform="translate(24.478125 186.983431) scale(0.1 -0.1)">
       <defs>
        <path id="DejaVuSans-33" d="M 2597 2516 
Q 3050 2419 3304 2112 
Q 3559 1806 3559 1356 
Q 3559 666 3084 287 
Q 2609 -91 1734 -91 
Q 1441 -91 1130 -33 
Q 819 25 488 141 
L 488 750 
Q 750 597 1062 519 
Q 1375 441 1716 441 
Q 2309 441 2620 675 
Q 2931 909 2931 1356 
Q 2931 1769 2642 2001 
Q 2353 2234 1838 2234 
L 1294 2234 
L 1294 2753 
L 1863 2753 
Q 2328 2753 2575 2939 
Q 2822 3125 2822 3475 
Q 2822 3834 2567 4026 
Q 2313 4219 1838 4219 
Q 1578 4219 1281 4162 
Q 984 4106 628 3988 
L 628 4550 
Q 988 4650 1302 4700 
Q 1616 4750 1894 4750 
Q 2613 4750 3031 4423 
Q 3450 4097 3450 3541 
Q 3450 3153 3228 2886 
Q 3006 2619 2597 2516 
z
" transform="scale(0.015625)"/>
       </defs>
       <use xlink:href="#DejaVuSans-2212"/>
       <use xlink:href="#DejaVuSans-33" x="83.789062"/>
      </g>
     </g>
    </g>
    <g id="ytick_2">
     <g id="line2d_9">
      <path d="M 46.220313 155.094501 
L 220.2 155.094501 
" clip-path="url(#p9af9af035e)" style="fill: none; stroke: #797979; stroke-width: 0.75; stroke-linecap: square"/>
     </g>
     <g id="line2d_10">
      <g>
       <use xlink:href="#m8c047d51a3" x="46.220313" y="155.094501" style="fill: #797979; stroke: #797979"/>
      </g>
     </g>
     <g id="text_6">
      <!-- −2 -->
      <g style="fill: #797979" transform="translate(24.478125 158.89372) scale(0.1 -0.1)">
       <defs>
        <path id="DejaVuSans-32" d="M 1228 531 
L 3431 531 
L 3431 0 
L 469 0 
L 469 531 
Q 828 903 1448 1529 
Q 2069 2156 2228 2338 
Q 2531 2678 2651 2914 
Q 2772 3150 2772 3378 
Q 2772 3750 2511 3984 
Q 2250 4219 1831 4219 
Q 1534 4219 1204 4116 
Q 875 4013 500 3803 
L 500 4441 
Q 881 4594 1212 4672 
Q 1544 4750 1819 4750 
Q 2544 4750 2975 4387 
Q 3406 4025 3406 3419 
Q 3406 3131 3298 2873 
Q 3191 2616 2906 2266 
Q 2828 2175 2409 1742 
Q 1991 1309 1228 531 
z
" transform="scale(0.015625)"/>
       </defs>
       <use xlink:href="#DejaVuSans-2212"/>
       <use xlink:href="#DejaVuSans-32" x="83.789062"/>
      </g>
     </g>
    </g>
    <g id="ytick_3">
     <g id="line2d_11">
      <path d="M 46.220313 127.00479 
L 220.2 127.00479 
" clip-path="url(#p9af9af035e)" style="fill: none; stroke: #797979; stroke-width: 0.75; stroke-linecap: square"/>
     </g>
     <g id="line2d_12">
      <g>
       <use xlink:href="#m8c047d51a3" x="46.220313" y="127.00479" style="fill: #797979; stroke: #797979"/>
      </g>
     </g>
     <g id="text_7">
      <!-- −1 -->
      <g style="fill: #797979" transform="translate(24.478125 130.804009) scale(0.1 -0.1)">
       <defs>
        <path id="DejaVuSans-31" d="M 794 531 
L 1825 531 
L 1825 4091 
L 703 3866 
L 703 4441 
L 1819 4666 
L 2450 4666 
L 2450 531 
L 3481 531 
L 3481 0 
L 794 0 
L 794 531 
z
" transform="scale(0.015625)"/>
       </defs>
       <use xlink:href="#DejaVuSans-2212"/>
       <use xlink:href="#DejaVuSans-31" x="83.789062"/>
      </g>
     </g>
    </g>
    <g id="ytick_4">
     <g id="line2d_13">
      <path d="M 46.220313 98.915079 
L 220.2 98.915079 
" clip-path="url(#p9af9af035e)" style="fill: none; stroke: #797979; stroke-width: 0.75; stroke-linecap: square"/>
     </g>
     <g id="line2d_14">
      <g>
       <use xlink:href="#m8c047d51a3" x="46.220313" y="98.915079" style="fill: #797979; stroke: #797979"/>
      </g>
     </g>
     <g id="text_8">
      <!-- 0 -->
      <g style="fill: #797979" transform="translate(32.857813 102.714298) scale(0.1 -0.1)">
       <use xlink:href="#DejaVuSans-30"/>
      </g>
     </g>
    </g>
    <g id="ytick_5">
     <g id="line2d_15">
      <path d="M 46.220313 70.825369 
L 220.2 70.825369 
" clip-path="url(#p9af9af035e)" style="fill: none; stroke: #797979; stroke-width: 0.75; stroke-linecap: square"/>
     </g>
     <g id="line2d_16">
      <g>
       <use xlink:href="#m8c047d51a3" x="46.220313" y="70.825369" style="fill: #797979; stroke: #797979"/>
      </g>
     </g>
     <g id="text_9">
      <!-- 1 -->
      <g style="fill: #797979" transform="translate(32.857813 74.624587) scale(0.1 -0.1)">
       <use xlink:href="#DejaVuSans-31"/>
      </g>
     </g>
    </g>
    <g id="ytick_6">
     <g id="line2d_17">
      <path d="M 46.220313 42.735658 
L 220.2 42.735658 
" clip-path="url(#p9af9af035e)" style="fill: none; stroke: #797979; stroke-width: 0.75; stroke-linecap: square"/>
     </g>
     <g id="line2d_18">
      <g>
       <use xlink:href="#m8c047d51a3" x="46.220313" y="42.735658" style="fill: #797979; stroke: #797979"/>
      </g>
     </g>
     <g id="text_10">
      <!-- 2 -->
      <g style="fill: #797979" transform="translate(32.857813 46.534877) scale(0.1 -0.1)">
       <use xlink:href="#DejaVuSans-32"/>
      </g>
     </g>
    </g>
    <g id="ytick_7">
     <g id="line2d_19">
      <path d="M 46.220313 14.645947 
L 220.2 14.645947 
" clip-path="url(#p9af9af035e)" style="fill: none; stroke: #797979; stroke-width: 0.75; stroke-linecap: square"/>
     </g>
     <g id="line2d_20">
      <g>
       <use xlink:href="#m8c047d51a3" x="46.220313" y="14.645947" style="fill: #797979; stroke: #797979"/>
      </g>
     </g>
     <g id="text_11">
      <!-- 3 -->
      <g style="fill: #797979" transform="translate(32.857813 18.445166) scale(0.1 -0.1)">
       <use xlink:href="#DejaVuSans-33"/>
      </g>
     </g>
    </g>
    <g id="text_12">
     <!-- $\varphi$ -->
     <g style="fill: #797979" transform="translate(18.378125 102.198273) rotate(-90) scale(0.1 -0.1)">
      <defs>
       <path id="DejaVuSans-Oblique-3c6" d="M 2969 3034 
Q 2766 3034 2675 2581 
L 2259 438 
Q 2553 438 2916 763 
Q 3244 1053 3375 1750 
Q 3497 2400 3300 2750 
Q 3138 3034 2969 3034 
z
M 3063 3525 
Q 3513 3525 3819 3113 
Q 4147 2672 3981 1750 
Q 3828 903 3291 400 
Q 2784 -75 2159 -75 
L 1916 -1331 
L 1344 -1331 
L 1588 -78 
Q 963 -78 641 400 
Q 309 888 475 1747 
Q 647 2641 1166 3097 
Q 1556 3438 2084 3525 
L 1984 3016 
Q 1766 2944 1538 2700 
Q 1194 2341 1081 1747 
Q 963 1116 1156 756 
Q 1334 434 1688 434 
L 2103 2581 
Q 2288 3525 3063 3525 
z
" transform="scale(0.015625)"/>
      </defs>
      <use xlink:href="#DejaVuSans-Oblique-3c6" transform="translate(0 0.921875)"/>
     </g>
    </g>
   </g>
   <g id="line2d_21">
    <path d="M 133.214489 19.493293 
L 127.775961 20.294426 
L 118.902175 24.130177 
L 102.885127 34.357946 
L 80.59218 52.264889 
L 68.856674 64.450711 
L 59.601881 77.953352 
L 55.413633 88.45578 
L 54.12848 95.883177 
L 54.607126 105.730944 
L 58.05632 116.719609 
L 66.499377 130.452493 
L 78.009936 143.129393 
L 100.13012 161.48935 
L 116.522315 172.362829 
L 126.034449 176.979905 
L 134.329829 178.301922 
L 140.134276 177.070703 
L 150.086738 172.258153 
L 168.326696 159.993789 
L 179.508601 151.142382 
L 191.994806 139.559861 
L 202.653312 126.728584 
L 210.144107 112.242172 
L 212.291539 102.060403 
L 211.820496 92.091183 
L 208.36967 81.103811 
L 199.922638 67.368586 
L 188.411385 54.693312 
L 166.292538 36.33611 
L 149.902831 25.464972 
L 140.392187 20.849233 
L 132.098502 19.528058 
L 126.293609 20.759639 
L 116.340459 25.572908 
L 98.099055 37.838692 
L 86.917033 46.690528 
L 74.431138 58.273369 
L 63.773275 71.104963 
L 56.283448 85.592026 
L 54.137136 95.772889 
L 54.608611 105.739991 
L 58.059878 116.727725 
L 66.507646 130.463337 
L 78.019034 143.138304 
L 100.137612 161.494991 
L 116.526802 172.365702 
L 126.037107 176.981229 
L 134.330489 178.302319 
L 140.135271 177.070747 
L 150.088219 172.25756 
L 168.329264 159.99204 
L 179.511249 151.14029 
L 191.997209 139.557511 
L 202.655219 126.725981 
L 210.145267 112.239057 
L 212.291832 102.057994 
L 211.820458 92.090403 
L 208.369296 81.102752 
L 199.921708 67.367232 
L 188.410352 54.69218 
L 166.291725 36.335345 
L 149.902466 25.464489 
L 140.392157 20.848839 
L 132.098663 19.52761 
L 126.294159 20.759063 
L 116.341678 25.57193 
L 98.101528 37.836685 
L 86.919627 46.688197 
L 74.433489 58.270799 
L 63.775099 71.102153 
L 56.284476 85.588704 
L 54.137248 95.770293 
L 54.608364 105.739149 
L 58.05926 116.726584 
L 66.506394 130.461869 
L 78.017668 143.137123 
L 100.136438 161.494306 
L 116.525942 172.365474 
L 126.036355 176.981347 
L 134.330084 178.302782 
L 140.134262 177.071481 
L 150.086197 172.259006 
L 168.325293 159.995165 
L 179.507096 151.143935 
L 191.993444 139.561545 
L 202.652284 126.730401 
L 210.143588 112.244293 
L 212.291601 102.062075 
L 211.820789 92.091728 
L 208.370209 81.104547 
L 199.923608 67.369539 
L 188.412431 54.694049 
L 166.293489 36.33646 
L 149.90369 25.464929 
L 140.393142 20.848804 
L 132.099141 19.527142 
L 126.295304 20.758282 
L 116.343939 25.570344 
L 98.105946 37.833227 
L 86.924244 46.68416 
L 74.437675 58.266329 
L 63.778364 71.097253 
L 56.286348 85.582898 
L 54.137515 95.765774 
L 54.608008 105.737681 
L 58.058258 116.724594 
L 66.504301 130.459314 
L 78.015378 143.135051 
L 100.134499 161.493062 
L 116.524609 172.364971 
L 126.035302 176.981357 
L 134.329584 178.303252 
L 140.133076 177.072276 
L 150.083865 172.260633 
L 156.36541 168.366796 
L 156.36541 168.366796 
" clip-path="url(#p9af9af035e)" style="fill: none; stroke: #e41a1c; stroke-width: 1.5; stroke-linecap: square"/>
   </g>
   <g id="patch_3">
    <path d="M 46.220313 186.24375 
L 46.220313 11.552795 
" style="fill: none; stroke: #797979; stroke-width: 1.5; stroke-linejoin: miter; stroke-linecap: square"/>
   </g>
   <g id="patch_4">
    <path d="M 220.2 186.24375 
L 220.2 11.552795 
" style="fill: none; stroke: #797979; stroke-width: 1.5; stroke-linejoin: miter; stroke-linecap: square"/>
   </g>
   <g id="patch_5">
    <path d="M 46.220313 186.24375 
L 220.2 186.24375 
" style="fill: none; stroke: #797979; stroke-width: 1.5; stroke-linejoin: miter; stroke-linecap: square"/>
   </g>
   <g id="patch_6">
    <path d="M 46.220313 11.552795 
L 220.2 11.552795 
" style="fill: none; stroke: #797979; stroke-width: 1.5; stroke-linejoin: miter; stroke-linecap: square"/>
   </g>
  </g>
 </g>
 <defs>
  <clipPath id="p9af9af035e">
   <rect x="46.220313" y="11.552795" width="173.979687" height="174.690955"/>
  </clipPath>
 </defs>
</svg>
