<?xml version="1.0" encoding="UTF-8" standalone="no"?>
<!DOCTYPE svg PUBLIC "-//W3C//DTD SVG 1.1//EN"
 "http://www.w3.org/Graphics/SVG/1.1/DTD/svg11.dtd">
<!-- Generated by graphviz version 12.2.1 (20241206.2353)
 -->
<!-- Title: System Graph Pages: 1 -->
<svg width="884pt" height="497pt"
 viewBox="0.00 0.00 884.00 497.13" xmlns="http://www.w3.org/2000/svg" xmlns:xlink="http://www.w3.org/1999/xlink">
<g id="graph0" class="graph" transform="scale(1 1) rotate(0) translate(4 493.13)">
<title>System Graph</title>
<polygon fill="white" stroke="none" points="-4,4 -4,-493.13 880,-493.13 880,4 -4,4"/>
<text text-anchor="middle" x="438" y="-471.83" font-family="Times New Roman,serif" font-size="14.00">System Graph</text>
<g id="clust1" class="cluster">
<title>cluster_dag</title>
<polygon fill="lightgray" stroke="black" points="8,-143.1 8,-432.3 364,-432.3 364,-143.1 8,-143.1"/>
<text text-anchor="middle" x="186" y="-415" font-family="Times New Roman,serif" font-size="14.00">Acyclic DAG</text>
</g>
<g id="clust2" class="cluster">
<title>cluster_dag_0</title>
<polygon fill="lightgray" stroke="black" points="16,-151.1 16,-399.8 356,-399.8 356,-151.1 16,-151.1"/>
<text text-anchor="middle" x="186" y="-382.5" font-family="Times New Roman,serif" font-size="14.00">Acyclic DAG</text>
</g>
<g id="clust3" class="cluster">
<title>cluster_loops</title>
<polygon fill="mistyrose" stroke="black" points="372,-8 372,-432.3 629,-432.3 629,-8 372,-8"/>
<text text-anchor="middle" x="500.5" y="-415" font-family="Times New Roman,serif" font-size="14.00">Algebraic Loops</text>
</g>
<g id="clust4" class="cluster">
<title>cluster_loop_0</title>
<polygon fill="mistyrose" stroke="black" points="380,-301.7 380,-399.8 540,-399.8 540,-301.7 380,-301.7"/>
<text text-anchor="middle" x="460" y="-382.5" font-family="Times New Roman,serif" font-size="14.00">Algebraic Loops</text>
</g>
<g id="clust5" class="cluster">
<title>cluster_loop_1</title>
<polygon fill="mistyrose" stroke="black" points="380,-151.1 380,-249.2 540,-249.2 540,-151.1 380,-151.1"/>
<text text-anchor="middle" x="460" y="-231.9" font-family="Times New Roman,serif" font-size="14.00">Algebraic Loops</text>
</g>
<g id="clust6" class="cluster">
<title>cluster_loop_2</title>
<polygon fill="mistyrose" stroke="black" points="380,-16 380,-114.1 540,-114.1 540,-16 380,-16"/>
<text text-anchor="middle" x="460" y="-96.8" font-family="Times New Roman,serif" font-size="14.00">Algebraic Loops</text>
</g>
<g id="clust7" class="cluster">
<title>cluster_legend</title>
<polygon fill="white" stroke="black" points="649,-158.3 649,-392.6 866,-392.6 866,-158.3 649,-158.3"/>
<text text-anchor="middle" x="757.5" y="-375.3" font-family="Times New Roman,serif" font-size="14.00">Legend</text>
</g>
<!-- n2779478857712 -->
<g id="node1" class="node">
<title>n2779478857712</title>
<polygon fill="lightcoral" stroke="black" points="168,-367.3 24,-367.3 24,-309.7 168,-309.7 168,-367.3"/>
<text text-anchor="middle" x="96" y="-333.45" font-family="Times New Roman,serif" font-size="14.00">Source</text>
</g>
<!-- n2780323819072 -->
<g id="node2" class="node">
<title>n2780323819072</title>
<polygon fill="lightcoral" stroke="black" points="258,-216.7 114,-216.7 114,-159.1 258,-159.1 258,-216.7"/>
<text text-anchor="middle" x="186" y="-182.85" font-family="Times New Roman,serif" font-size="14.00">Scope</text>
</g>
<!-- n2779478857712&#45;&gt;n2780323819072 -->
<g id="edge5" class="edge">
<title>n2779478857712&#45;&gt;n2780323819072</title>
<path fill="none" stroke="black" d="M112.93,-309.55C127.09,-286.17 147.42,-252.6 163.05,-226.8"/>
<polygon fill="black" stroke="black" points="166.02,-228.64 168.21,-218.27 160.04,-225.01 166.02,-228.64"/>
</g>
<!-- n2780323818736 -->
<g id="node4" class="node">
<title>n2780323818736</title>
<polygon fill="lightblue" stroke="black" points="532,-367.3 388,-367.3 388,-309.7 532,-309.7 532,-367.3"/>
<text text-anchor="middle" x="460" y="-333.45" font-family="Times New Roman,serif" font-size="14.00">Adder</text>
</g>
<!-- n2779478857712&#45;&gt;n2780323818736 -->
<!-- n2779478857712&#45;&gt;n2780323818736 -->
<g id="edge4" class="edge">
<title>n2779478857712&#45;&gt;n2780323818736</title>
<path fill="none" stroke="black" d="M113.77,-367.61C133.28,-396.43 167.54,-438.71 210,-456.3 236.9,-467.44 314.08,-467.37 341,-456.3 379.89,-440.31 412.82,-404.78 434.12,-376.9"/>
<polygon fill="black" stroke="black" points="436.84,-379.11 439.98,-368.99 431.21,-374.94 436.84,-379.11"/>
</g>
<!-- n2780324287248 -->
<g id="node3" class="node">
<title>n2780324287248</title>
<polygon fill="lightcoral" stroke="black" points="348,-367.3 204,-367.3 204,-309.7 348,-309.7 348,-367.3"/>
<text text-anchor="middle" x="276" y="-333.45" font-family="Times New Roman,serif" font-size="14.00">Scope</text>
</g>
<!-- n2780323818736&#45;&gt;n2780323819072 -->
<g id="edge7" class="edge">
<title>n2780323818736&#45;&gt;n2780323819072</title>
<path fill="none" stroke="black" d="M408.14,-309.37C362.66,-284.71 296.44,-248.79 248.13,-222.6"/>
<polygon fill="black" stroke="black" points="249.9,-219.57 239.44,-217.88 246.57,-225.73 249.9,-219.57"/>
</g>
<!-- n2780323817056 -->
<g id="node5" class="node">
<title>n2780323817056</title>
<polygon fill="lightblue" stroke="black" points="532,-216.7 388,-216.7 388,-159.1 532,-159.1 532,-216.7"/>
<text text-anchor="middle" x="460" y="-182.85" font-family="Times New Roman,serif" font-size="14.00">Function</text>
</g>
<!-- n2780323818736&#45;&gt;n2780323817056 -->
<!-- n2780323818736&#45;&gt;n2780323817056 -->
<g id="edge6" class="edge">
<title>n2780323818736&#45;&gt;n2780323817056</title>
<path fill="none" stroke="black" d="M470.82,-309.55C473.91,-286.58 474.33,-253.78 472.07,-228.17"/>
<polygon fill="black" stroke="black" points="475.57,-228.04 471,-218.48 468.62,-228.8 475.57,-228.04"/>
</g>
<!-- n2780323817056&#45;&gt;n2780324287248 -->
<g id="edge9" class="edge">
<title>n2780323817056&#45;&gt;n2780324287248</title>
<path fill="none" stroke="black" d="M425.23,-216.98C395.21,-241.22 351.7,-276.36 319.4,-302.45"/>
<polygon fill="black" stroke="black" points="317.37,-299.59 311.79,-308.6 321.77,-305.04 317.37,-299.59"/>
</g>
<!-- n2780323818400 -->
<g id="node6" class="node">
<title>n2780323818400</title>
<polygon fill="lightblue" stroke="black" points="532,-81.6 388,-81.6 388,-24 532,-24 532,-81.6"/>
<text text-anchor="middle" x="460" y="-47.75" font-family="Times New Roman,serif" font-size="14.00">Amplifier</text>
</g>
<!-- n2780323817056&#45;&gt;n2780323818400 -->
<!-- n2780323817056&#45;&gt;n2780323818400 -->
<g id="edge8" class="edge">
<title>n2780323817056&#45;&gt;n2780323818400</title>
<path fill="none" stroke="black" d="M471.27,-158.67C473.78,-139.61 474.17,-114.2 472.44,-93.16"/>
<polygon fill="black" stroke="black" points="475.95,-93.07 471.43,-83.49 468.99,-93.8 475.95,-93.07"/>
</g>
<!-- n2780323818400&#45;&gt;n2780323818736 -->
<g id="edge10" class="edge">
<title>n2780323818400&#45;&gt;n2780323818736</title>
<path fill="none" stroke="red" stroke-width="2" stroke-dasharray="5,2" d="M500.17,-82.08C518.79,-97.69 538.97,-118.82 549,-143.1 567.01,-186.68 567.13,-205.67 549,-249.2 540.75,-269 525.67,-286.64 510.23,-300.85"/>
<polygon fill="red" stroke="red" stroke-width="2" points="508.13,-298.03 502.91,-307.25 512.74,-303.3 508.13,-298.03"/>
<text text-anchor="middle" x="571.18" y="-182.85" font-family="Times New Roman,serif" font-size="14.00">LC</text>
</g>
<!-- l1 -->
<g id="node7" class="node">
<title>l1</title>
<polygon fill="lightblue" stroke="black" points="765,-360.1 657,-360.1 657,-316.9 765,-316.9 765,-360.1"/>
<text text-anchor="middle" x="711" y="-333.45" font-family="Times New Roman,serif" font-size="14.00">Algebraic</text>
</g>
<!-- l1&#45;&gt;l1 -->
<g id="edge12" class="edge">
<title>l1&#45;&gt;l1</title>
<path fill="none" stroke="red" stroke-width="2" stroke-dasharray="5,2" d="M765.48,-352.18C785.05,-352.48 801,-347.92 801,-338.5 801,-331.29 791.65,-326.93 778.48,-325.41"/>
<polygon fill="red" stroke="red" stroke-width="2" points="778.65,-321.91 768.51,-324.95 778.34,-328.91 778.65,-321.91"/>
<text text-anchor="middle" x="838.5" y="-333.45" font-family="Times New Roman,serif" font-size="14.00">Loop&#45;Closing</text>
</g>
<!-- l2 -->
<g id="node8" class="node">
<title>l2</title>
<polygon fill="lightcoral" stroke="black" points="765,-209.5 657,-209.5 657,-166.3 765,-166.3 765,-209.5"/>
<text text-anchor="middle" x="711" y="-182.85" font-family="Times New Roman,serif" font-size="14.00">Dynamic</text>
</g>
<!-- l1&#45;&gt;l2 -->
<g id="edge11" class="edge">
<title>l1&#45;&gt;l2</title>
<path fill="none" stroke="black" d="M711,-316.52C711,-291.63 711,-249.86 711,-220.92"/>
<polygon fill="black" stroke="black" points="714.5,-221.28 711,-211.28 707.5,-221.28 714.5,-221.28"/>
<text text-anchor="middle" x="732.38" y="-260.4" font-family="Times New Roman,serif" font-size="14.00">Regular</text>
</g>
</g>
</svg>
